<mxfile host="app.diagrams.net" modified="2022-05-16T10:04:17.930Z" agent="5.0 (Windows NT 10.0; Win64; x64) AppleWebKit/537.36 (KHTML, like Gecko) Chrome/101.0.4951.54 Safari/537.36" etag="ko-8Po2h0weSkTjgzANH" version="18.0.5" type="github">
  <diagram name="Page-1" id="e7e014a7-5840-1c2e-5031-d8a46d1fe8dd">
    <mxGraphModel dx="1069" dy="624" grid="1" gridSize="10" guides="1" tooltips="1" connect="1" arrows="1" fold="1" page="1" pageScale="1" pageWidth="1169" pageHeight="826" background="none" math="0" shadow="0">
      <root>
        <mxCell id="0" />
        <mxCell id="1" parent="0" />
        <mxCell id="2" value="Product" style="swimlane;whiteSpace=wrap" parent="1" vertex="1">
          <mxGeometry x="164.5" y="128" width="280" height="570" as="geometry" />
        </mxCell>
        <mxCell id="5" value="" style="ellipse;shape=startState;fillColor=#000000;strokeColor=#ff0000;" parent="2" vertex="1">
          <mxGeometry x="100" y="40" width="30" height="30" as="geometry" />
        </mxCell>
        <mxCell id="6" value="" style="edgeStyle=elbowEdgeStyle;elbow=horizontal;verticalAlign=bottom;endArrow=open;endSize=8;strokeColor=#FF0000;endFill=1;rounded=0" parent="2" source="5" target="7" edge="1">
          <mxGeometry x="100" y="40" as="geometry">
            <mxPoint x="115" y="110" as="targetPoint" />
          </mxGeometry>
        </mxCell>
        <mxCell id="7" value="message listener" style="" parent="2" vertex="1">
          <mxGeometry x="60" y="110" width="110" height="50" as="geometry" />
        </mxCell>
        <mxCell id="38" value="" style="ellipse;shape=endState;fillColor=#000000;strokeColor=#ff0000" parent="2" vertex="1">
          <mxGeometry x="85.5" y="442" width="30" height="30" as="geometry" />
        </mxCell>
        <mxCell id="3" value="Starfox" style="swimlane;whiteSpace=wrap" parent="1" vertex="1">
          <mxGeometry x="470" y="128" width="280" height="570" as="geometry" />
        </mxCell>
        <mxCell id="QH29gUCI2UGYwugb61in-42" style="edgeStyle=orthogonalEdgeStyle;rounded=0;orthogonalLoop=1;jettySize=auto;html=1;exitX=0.5;exitY=1;exitDx=0;exitDy=0;entryX=0.5;entryY=0;entryDx=0;entryDy=0;" edge="1" parent="3" source="18" target="30">
          <mxGeometry relative="1" as="geometry">
            <Array as="points">
              <mxPoint x="115" y="242" />
              <mxPoint x="95" y="242" />
            </Array>
          </mxGeometry>
        </mxCell>
        <mxCell id="18" value="字段校验&#xa;需要校验的字段组成&#xa;一个pojo" style="" parent="3" vertex="1">
          <mxGeometry x="60" y="110" width="110" height="50" as="geometry" />
        </mxCell>
        <mxCell id="30" value="拿到单据list entity&#xa;进行分组" style="" parent="3" vertex="1">
          <mxGeometry x="40" y="222" width="110" height="50" as="geometry" />
        </mxCell>
        <mxCell id="8" value="创建新单据" style="" parent="3" vertex="1">
          <mxGeometry x="60" y="362" width="110" height="38" as="geometry" />
        </mxCell>
        <mxCell id="QH29gUCI2UGYwugb61in-43" style="edgeStyle=orthogonalEdgeStyle;rounded=0;orthogonalLoop=1;jettySize=auto;html=1;" edge="1" parent="3">
          <mxGeometry relative="1" as="geometry">
            <mxPoint x="95" y="272" as="sourcePoint" />
            <mxPoint x="100" y="362" as="targetPoint" />
            <Array as="points">
              <mxPoint x="100" y="272" />
            </Array>
          </mxGeometry>
        </mxCell>
        <mxCell id="QH29gUCI2UGYwugb61in-41" style="edgeStyle=orthogonalEdgeStyle;rounded=0;orthogonalLoop=1;jettySize=auto;html=1;exitX=1.001;exitY=0.487;exitDx=0;exitDy=0;exitPerimeter=0;" edge="1" parent="1" source="7">
          <mxGeometry relative="1" as="geometry">
            <mxPoint x="530" y="263" as="targetPoint" />
          </mxGeometry>
        </mxCell>
        <mxCell id="QH29gUCI2UGYwugb61in-46" style="edgeStyle=orthogonalEdgeStyle;rounded=0;orthogonalLoop=1;jettySize=auto;html=1;exitX=-0.024;exitY=0.456;exitDx=0;exitDy=0;exitPerimeter=0;" edge="1" parent="1" source="8" target="38">
          <mxGeometry relative="1" as="geometry">
            <mxPoint x="480" y="509" as="sourcePoint" />
          </mxGeometry>
        </mxCell>
      </root>
    </mxGraphModel>
  </diagram>
</mxfile>
